<mxfile host="app.diagrams.net" modified="2020-09-11T09:18:55.326Z" agent="5.0 (Windows NT 10.0; Win64; x64) AppleWebKit/537.36 (KHTML, like Gecko) Chrome/85.0.4183.102 Safari/537.36" etag="lZ2VVbxbNG6UUvQWPZ4m" version="13.6.5" type="github">
  <diagram id="C5RBs43oDa-KdzZeNtuy" name="Page-1">
    <mxGraphModel dx="1896" dy="1016" grid="1" gridSize="10" guides="1" tooltips="1" connect="1" arrows="1" fold="1" page="1" pageScale="1" pageWidth="827" pageHeight="1169" math="0" shadow="0">
      <root>
        <mxCell id="WIyWlLk6GJQsqaUBKTNV-0" />
        <mxCell id="WIyWlLk6GJQsqaUBKTNV-1" parent="WIyWlLk6GJQsqaUBKTNV-0" />
        <mxCell id="fAxjacb5hlUzlczZvsuK-2" style="edgeStyle=orthogonalEdgeStyle;rounded=0;orthogonalLoop=1;jettySize=auto;html=1;entryX=0.5;entryY=0;entryDx=0;entryDy=0;" edge="1" parent="WIyWlLk6GJQsqaUBKTNV-1" source="fAxjacb5hlUzlczZvsuK-0" target="fAxjacb5hlUzlczZvsuK-1">
          <mxGeometry relative="1" as="geometry" />
        </mxCell>
        <mxCell id="fAxjacb5hlUzlczZvsuK-0" value="Start" style="strokeWidth=2;html=1;shape=mxgraph.flowchart.start_2;whiteSpace=wrap;" vertex="1" parent="WIyWlLk6GJQsqaUBKTNV-1">
          <mxGeometry x="360" y="27" width="80" height="80" as="geometry" />
        </mxCell>
        <mxCell id="fAxjacb5hlUzlczZvsuK-5" value="" style="edgeStyle=orthogonalEdgeStyle;rounded=0;orthogonalLoop=1;jettySize=auto;html=1;" edge="1" parent="WIyWlLk6GJQsqaUBKTNV-1" source="fAxjacb5hlUzlczZvsuK-1" target="fAxjacb5hlUzlczZvsuK-3">
          <mxGeometry relative="1" as="geometry" />
        </mxCell>
        <mxCell id="fAxjacb5hlUzlczZvsuK-1" value="Login" style="rounded=1;whiteSpace=wrap;html=1;absoluteArcSize=1;arcSize=14;strokeWidth=2;" vertex="1" parent="WIyWlLk6GJQsqaUBKTNV-1">
          <mxGeometry x="350" y="157" width="100" height="100" as="geometry" />
        </mxCell>
        <mxCell id="fAxjacb5hlUzlczZvsuK-7" value="" style="edgeStyle=orthogonalEdgeStyle;rounded=0;orthogonalLoop=1;jettySize=auto;html=1;" edge="1" parent="WIyWlLk6GJQsqaUBKTNV-1" source="fAxjacb5hlUzlczZvsuK-3" target="fAxjacb5hlUzlczZvsuK-6">
          <mxGeometry relative="1" as="geometry" />
        </mxCell>
        <mxCell id="fAxjacb5hlUzlczZvsuK-13" value="" style="edgeStyle=orthogonalEdgeStyle;rounded=0;orthogonalLoop=1;jettySize=auto;html=1;" edge="1" parent="WIyWlLk6GJQsqaUBKTNV-1" source="fAxjacb5hlUzlczZvsuK-3" target="fAxjacb5hlUzlczZvsuK-12">
          <mxGeometry relative="1" as="geometry" />
        </mxCell>
        <mxCell id="fAxjacb5hlUzlczZvsuK-3" value="Create&lt;br&gt;Programme" style="rounded=1;whiteSpace=wrap;html=1;absoluteArcSize=1;arcSize=14;strokeWidth=2;" vertex="1" parent="WIyWlLk6GJQsqaUBKTNV-1">
          <mxGeometry x="350" y="307" width="100" height="100" as="geometry" />
        </mxCell>
        <mxCell id="fAxjacb5hlUzlczZvsuK-9" value="" style="edgeStyle=orthogonalEdgeStyle;rounded=0;orthogonalLoop=1;jettySize=auto;html=1;" edge="1" parent="WIyWlLk6GJQsqaUBKTNV-1" source="fAxjacb5hlUzlczZvsuK-6" target="fAxjacb5hlUzlczZvsuK-8">
          <mxGeometry relative="1" as="geometry" />
        </mxCell>
        <mxCell id="fAxjacb5hlUzlczZvsuK-21" value="" style="edgeStyle=orthogonalEdgeStyle;rounded=0;orthogonalLoop=1;jettySize=auto;html=1;" edge="1" parent="WIyWlLk6GJQsqaUBKTNV-1" source="fAxjacb5hlUzlczZvsuK-6" target="fAxjacb5hlUzlczZvsuK-12">
          <mxGeometry relative="1" as="geometry" />
        </mxCell>
        <mxCell id="fAxjacb5hlUzlczZvsuK-6" value="Load&lt;br&gt;Participant&lt;br&gt;List" style="rounded=1;whiteSpace=wrap;html=1;absoluteArcSize=1;arcSize=14;strokeWidth=2;" vertex="1" parent="WIyWlLk6GJQsqaUBKTNV-1">
          <mxGeometry x="350" y="457" width="100" height="100" as="geometry" />
        </mxCell>
        <mxCell id="fAxjacb5hlUzlczZvsuK-11" value="" style="edgeStyle=orthogonalEdgeStyle;rounded=0;orthogonalLoop=1;jettySize=auto;html=1;" edge="1" parent="WIyWlLk6GJQsqaUBKTNV-1" source="fAxjacb5hlUzlczZvsuK-8" target="fAxjacb5hlUzlczZvsuK-10">
          <mxGeometry relative="1" as="geometry" />
        </mxCell>
        <mxCell id="fAxjacb5hlUzlczZvsuK-8" value="Generate&lt;br&gt;Certificate" style="rounded=1;whiteSpace=wrap;html=1;absoluteArcSize=1;arcSize=14;strokeWidth=2;" vertex="1" parent="WIyWlLk6GJQsqaUBKTNV-1">
          <mxGeometry x="350" y="607" width="100" height="100" as="geometry" />
        </mxCell>
        <mxCell id="fAxjacb5hlUzlczZvsuK-23" value="" style="edgeStyle=orthogonalEdgeStyle;rounded=0;orthogonalLoop=1;jettySize=auto;html=1;" edge="1" parent="WIyWlLk6GJQsqaUBKTNV-1" source="fAxjacb5hlUzlczZvsuK-10" target="fAxjacb5hlUzlczZvsuK-22">
          <mxGeometry relative="1" as="geometry" />
        </mxCell>
        <mxCell id="fAxjacb5hlUzlczZvsuK-26" value="" style="edgeStyle=orthogonalEdgeStyle;rounded=0;orthogonalLoop=1;jettySize=auto;html=1;" edge="1" parent="WIyWlLk6GJQsqaUBKTNV-1" source="fAxjacb5hlUzlczZvsuK-10" target="fAxjacb5hlUzlczZvsuK-25">
          <mxGeometry relative="1" as="geometry" />
        </mxCell>
        <mxCell id="fAxjacb5hlUzlczZvsuK-10" value="Print &lt;br&gt;Certificate" style="rounded=1;whiteSpace=wrap;html=1;absoluteArcSize=1;arcSize=14;strokeWidth=2;" vertex="1" parent="WIyWlLk6GJQsqaUBKTNV-1">
          <mxGeometry x="350" y="757" width="100" height="100" as="geometry" />
        </mxCell>
        <mxCell id="fAxjacb5hlUzlczZvsuK-19" value="" style="edgeStyle=orthogonalEdgeStyle;rounded=0;orthogonalLoop=1;jettySize=auto;html=1;" edge="1" parent="WIyWlLk6GJQsqaUBKTNV-1" source="fAxjacb5hlUzlczZvsuK-12" target="fAxjacb5hlUzlczZvsuK-18">
          <mxGeometry relative="1" as="geometry" />
        </mxCell>
        <mxCell id="fAxjacb5hlUzlczZvsuK-12" value="Database" style="strokeWidth=2;html=1;shape=mxgraph.flowchart.database;whiteSpace=wrap;" vertex="1" parent="WIyWlLk6GJQsqaUBKTNV-1">
          <mxGeometry x="520" y="477" width="60" height="60" as="geometry" />
        </mxCell>
        <mxCell id="fAxjacb5hlUzlczZvsuK-15" value="" style="edgeStyle=orthogonalEdgeStyle;rounded=0;orthogonalLoop=1;jettySize=auto;html=1;" edge="1" parent="WIyWlLk6GJQsqaUBKTNV-1" target="fAxjacb5hlUzlczZvsuK-6">
          <mxGeometry relative="1" as="geometry">
            <mxPoint x="290" y="507" as="sourcePoint" />
          </mxGeometry>
        </mxCell>
        <mxCell id="fAxjacb5hlUzlczZvsuK-17" value="" style="shape=image;html=1;verticalAlign=top;verticalLabelPosition=bottom;labelBackgroundColor=#ffffff;imageAspect=0;aspect=fixed;image=https://cdn3.iconfinder.com/data/icons/document-icons-2/30/647702-excel-128.png" vertex="1" parent="WIyWlLk6GJQsqaUBKTNV-1">
          <mxGeometry x="200" y="460" width="94" height="94" as="geometry" />
        </mxCell>
        <mxCell id="fAxjacb5hlUzlczZvsuK-20" style="edgeStyle=orthogonalEdgeStyle;rounded=0;orthogonalLoop=1;jettySize=auto;html=1;entryX=1;entryY=0.5;entryDx=0;entryDy=0;" edge="1" parent="WIyWlLk6GJQsqaUBKTNV-1" source="fAxjacb5hlUzlczZvsuK-18" target="fAxjacb5hlUzlczZvsuK-8">
          <mxGeometry relative="1" as="geometry" />
        </mxCell>
        <mxCell id="fAxjacb5hlUzlczZvsuK-18" value="participant&lt;br&gt;list" style="strokeWidth=2;html=1;shape=mxgraph.flowchart.stored_data;whiteSpace=wrap;" vertex="1" parent="WIyWlLk6GJQsqaUBKTNV-1">
          <mxGeometry x="500" y="627" width="100" height="60" as="geometry" />
        </mxCell>
        <mxCell id="fAxjacb5hlUzlczZvsuK-22" value="Certificate" style="strokeWidth=2;html=1;shape=mxgraph.flowchart.multi-document;whiteSpace=wrap;" vertex="1" parent="WIyWlLk6GJQsqaUBKTNV-1">
          <mxGeometry x="520" y="777" width="88" height="60" as="geometry" />
        </mxCell>
        <mxCell id="fAxjacb5hlUzlczZvsuK-31" value="" style="edgeStyle=orthogonalEdgeStyle;rounded=0;orthogonalLoop=1;jettySize=auto;html=1;" edge="1" parent="WIyWlLk6GJQsqaUBKTNV-1" source="fAxjacb5hlUzlczZvsuK-25" target="fAxjacb5hlUzlczZvsuK-30">
          <mxGeometry relative="1" as="geometry" />
        </mxCell>
        <mxCell id="fAxjacb5hlUzlczZvsuK-25" value="Logout" style="rounded=1;whiteSpace=wrap;html=1;absoluteArcSize=1;arcSize=14;strokeWidth=2;" vertex="1" parent="WIyWlLk6GJQsqaUBKTNV-1">
          <mxGeometry x="350" y="907" width="100" height="100" as="geometry" />
        </mxCell>
        <mxCell id="fAxjacb5hlUzlczZvsuK-30" value="End" style="strokeWidth=2;html=1;shape=mxgraph.flowchart.start_2;whiteSpace=wrap;" vertex="1" parent="WIyWlLk6GJQsqaUBKTNV-1">
          <mxGeometry x="350" y="1047" width="100" height="100" as="geometry" />
        </mxCell>
      </root>
    </mxGraphModel>
  </diagram>
</mxfile>
